<?xml version="1.0" encoding="UTF-8"?><svg id="IconLilbrary" xmlns="http://www.w3.org/2000/svg" viewBox="0 0 1231.48 1016.56"><path id="Library" d="M407.33,170.18c4.73-2.28,9.37-4.56,14.39-6.25,64.44-21.67,136.25-32.98,201.36-53.94,30.85-6.34,60.3,10.65,70.72,40.08l41.8,157.32,5.89-18.57c10.31-23.39,27.66-30.18,50.53-36.81,46.04-13.35,99.63-29.33,146.09-39.14,30.81-6.51,57.72,5.63,71.49,34.09,54.87,201.34,109.27,403.01,161.79,604.95,2.4,33.72-19.05,59.88-51.67,66.46l-110.59,30.02h190.52c5.09,0,15.08,4.45,19.17,7.7,24.06,19.09,11.61,58.91-19.13,60.47l-1170.05-.05c-43.25-4.29-36.23-68.12,1.91-68.12h67.67l-4.17-12.63c-3.74-291.54-.47-583.72-1.64-875.5C95.48,27.44,119.64,3.3,152.46,1.25c64.1-4,132.32,3.12,196.85,0,26.84-.3,58.03,28.17,58.03,55.21v113.71ZM359.34,172.1V59.35c0-2.65-7.13-9.78-10.5-9.65l-194.42-.43c-4.21-.77-12.95,6.54-12.95,10.08v112.75h217.88ZM430.7,212.73c-2.25,2.25-4.72,7.95-3.78,11.21l188.86,703.66c2.22,4.75,7.46,7.24,12.52,7.17l201.87-54.47c5.2-3.1,7.33-8.7,5.97-14.68l-188.99-702.49c-3.22-4.66-7.69-7.44-13.53-6.14l-197.73,52.78c-1.52.57-4.1,1.86-5.2,2.96ZM359.34,220.08h-215.96v114.19h215.96v-114.19ZM800.87,378.41l180.45-48.45.77-2.62-17.63-63.07c-2.75-3.82-7.19-5.91-11.96-5.42l-158.37,42.29c-8.04,2.43-10.51,8.22-9.49,16.26l16.24,61.01ZM572.42,948.39l-164.61-610.29-.44,587.78c-.74,7.82-2.98,15.26-5.8,22.51h170.85ZM995.68,376.51l-180.43,47,17.35,68.06,180.38-46.95-17.3-68.11ZM142.91,382.25l-1.44,1.44v541.2c0,2.65,6.46,9.29,9.53,9.66l196.35.41c4.04.74,12-6.81,12-10.07V383.69l-1.44-1.44h-215ZM844.05,538.67l95.3,356.2c2.4,7.98,3.15,16.26,13.15,17.64,55.73-13.49,111.57-28.33,166.56-44.69,4.21-3.78,5.22-9.07,3.86-14.47l-97.43-362.26-181.45,47.58ZM917,948.39c-22.43-17.04-24.89-46.61-31.68-71.97-2.69,2.02-2.23,7.05-3.35,10.56-6.23,19.68-21.94,34.91-41.76,40.77l-75.82,20.63h152.61Z"/></svg>