<?xml version="1.0" encoding="UTF-8"?><svg id="IconSignIn" xmlns="http://www.w3.org/2000/svg" viewBox="0 0 1179.77 1301.31"><path id="Rectangle" d="M436.97,1115.36l15.66-5.93c37.49-19.45,39.38-72.22,2.86-93.7l-17.56-6.91h613.68c9.61,0,22.26-14.57,21.63-24.44V131.98c-.75-16.03-11.87-25.17-27.35-26.39H320.34c-11.46-.89-28.27,10.54-28.27,22.59v738.59l-3.38-10.54c-18.31-44.28-80.53-44.36-98.81,0l-3.37,10.54c.06-268.59-.13-537.21.04-805.82,0-7.09-1.22-10.84.39-18.72C191.46,20.03,209.62,3.11,232.06,0h900.21c26.99,3.13,45.58,24.63,47.5,51.35v1011.74c0,26.06-25.22,52.27-51.38,52.27H436.97Z"/><path id="Avatar" d="M357.33,898.44c.18-61.43,17.94-121.92,50.46-173.65,55.66-88.52,155.99-148.23,261.41-150.78l-34.75-6.98c-116.04-32.69-168.26-170.53-100.77-272.06,69.31-104.27,223.92-105.93,295.61-3.44,70.77,101.17,19.95,241.05-96.97,275.07l-36.23,7.42c171.29,3.69,314.2,153.27,311.88,324.43H357.33Z"/><path id="Flèche" d="M186.51,1191.19l-2.89,1.43c-32.8,28.65-62.41,68-95.45,95.53-49.91,41.59-116.11-24.29-75.38-74.43l97.9-98.36h-62.86c-8.68,0-23.21-7.67-29.77-13.41-35.58-31.11-15.25-89.64,31.66-93.17l194.83.05c24.12,2.6,44.58,22.22,47.55,46.5v198.75c-5.27,45.56-62.8,63.68-93.09,28.73-4.37-5.04-12.5-19.48-12.5-25.89v-65.75Z"/></svg>