<?xml version="1.0" encoding="UTF-8"?><svg id="generalGroup" xmlns="http://www.w3.org/2000/svg" viewBox="0 0 2763 2388"><g id="GroupCaseList"><path id="iconAdd" d="M2111.24,2387.53c-46.75-5.59-109.96-62.07-109.96-110.98v-390.92h-390.86c-52.07,0-106.47-65.5-110.93-115.01-6.1-67.84,46.86-146.94,118.93-146.94h382.86v-388.92c0-43.69,52.07-94.31,91.95-106,76.05-22.28,169.95,33.72,169.95,115.99v378.92h380.86c58.6,0,113.7,61.72,118.96,117.98v27.99c-2.74,7.69-2.74,15.71-4.99,24-10.76,39.75-63.11,91.97-105.97,91.97h-388.86v380.92c0,5.1-3.49,19.17-5.02,24.97-13.37,50.87-56.2,86.01-106.94,96-12.72-1.09-27.59,1.48-39.99,0Z"/></g><g id="GroupListCase"><g id="ListGroup"><path id="Line" d="M569.35,746.41l1214.97-.53c77.26,8.25,83.45,115.47,6.04,129.95l-1223.55-.04c-76.23-13.47-74.61-118.39,2.53-129.39Z"/><path id="Circle" d="M373.42,746.41c77.65-7.48,99.36,103.41,28.38,126.36-94.49,30.55-119.59-117.57-28.38-126.36Z"/><path id="Line-2" d="M569.35,976.36l1214.97-.53c77.26,8.25,83.45,115.47,6.04,129.95l-1223.55-.04c-76.23-13.47-74.61-118.39,2.53-129.39Z"/><path id="Circle-2" d="M373.42,976.37c77.65-7.48,99.36,103.41,28.38,126.36-94.49,30.55-119.59-117.57-28.38-126.36Z"/><path id="Line-3" d="M569.35,1206.32l1214.97-.53c77.26,8.25,83.45,115.47,6.04,129.95l-1223.55-.04c-76.23-13.47-74.61-118.39,2.53-129.39Z"/><path id="Circle-3" d="M373.42,1206.32c77.65-7.48,99.36,103.41,28.38,126.36-94.49,30.55-119.59-117.57-28.38-126.36Z"/></g><path id="Case" d="M637.77,0l22.02,12.97,160.96,158.95,1155.63-.05c82.61-4.85,182.84,81.59,182.84,165.06v688.86c-14.89-.69-29.97-4.57-44.83-.22l-3.16-2.78v-484.9H49.98v1076.79c0,48.21,69.03,114.98,116.96,114.98h1232.55c-3,17.4-3.9,34.53-2,51.99H162.94c-55.45,0-129.53-60.47-147.31-112.62l-15.63-55.35V169.97c5.14-12.53,5.64-26.3,9.48-39.51C25.83,74.16,75.61,25.31,131.51,8.56L171.94,0h465.83ZM2111.24,489.9v-154.97c0-5.88-10.41-33.73-13.64-40.34-20.58-41.99-65.21-69.97-111.34-74.6l-1179.07-.51-17.51-8.48-164.94-162.97-445.89-.14c-53.88-2.97-128.86,61.02-128.86,115.07v326.94h2061.25Z"/></g></svg>