<?xml version="1.0" encoding="UTF-8"?><svg id="Icon-Library" xmlns="http://www.w3.org/2000/svg" viewBox="0 0 1400.37 1244"><path id="Livres" d="M406.88,169.95c.69.71,13.28-5.2,15.58-6.02,51.11-18.24,108.66-28.22,161.47-42.04,30.4-7.95,54.74-22.12,84.95-3.2,10.71,6.71,18.56,16.72,23.59,28.24l42.75,159.28c1.32.29,1.03-1,1.41-1.91,6.05-14.48,5.8-24.05,19.24-35.48,17.67-15.03,76.42-28.52,101.04-35.26,23.03-6.31,46.93-13.23,70.27-18.04,35.81-7.37,62.35-4.52,81.49,29.88l108.6,403.41c-16.01,1.99-31.44,7.88-45.11,16.31l-47.6-173.64-179.86,47.04,84.41,319.49c-43.65-2.23-85.34,20.71-107.92,57.67-4,6.54-6.93,13.43-10.59,20.12l-42.77,12.42h39.36c-5.65,22.3-5.48,46.29,1.92,68.14H25.28c-.87,0-7.03-2.51-8.36-3.15-29.5-14.27-17.19-64.98,12.2-64.98h69.6c-.54-5.23-3.39-9.51-3.88-14.83-1.23-13.34.34-29.49.08-43.26-5.03-266.2.6-533.05-2-799.31-.22-22.71-1.85-43,11.34-62.64C123.37-.27,155.64.54,186.51.05c24.95-.39,50.08,1.73,74.89,2,29.57.32,64.47-2.56,93.19-.07,17.95,1.56,39.32,18.52,47.31,34.28,1.04,2.05,4.97,11.69,4.97,13.26v120.44ZM358.88,172.83V58.15c0-1.25-6.11-6.83-7.95-7.41l-200.41-.31c-1.95.58-8.6,5.8-8.6,7.72v114.68h216.96ZM632.24,157.73l-195.4,52.26c-6.09,1.38-9.73,6.05-9.88,12.27-.17,7.12,6.83,27.88,8.99,36.19,57.85,222.36,120.74,443.47,178.76,665.8,1.33,6.51,5.84,10.37,12.49,10.62l203.38-54.91c6.63-4.16,5.99-10.03,4.79-16.98l-189.04-700.63c-3.67-4.77-8.39-5.38-14.09-4.61ZM358.88,220.81h-215.04v114.2h215.04v-114.2ZM800.52,378.16l180.03-47.88,1.24-1.72-18.06-65.1c-3.26-2.69-7.33-5.07-11.78-4.05-49.83,14.88-102.07,25.16-151.67,40.35-9.35,2.86-16.76,4.16-16.03,16.4l16.28,61.98ZM572,948.23l-164.16-607.46v584.91l-5.76,22.55h169.92ZM1012.64,445.37l-17.88-68.06-178.97,46.53,16.92,67.66,179.93-46.13ZM358.88,382.99h-216.96v543.64c0,1.66,7.24,9.03,10.06,8.18l198.51-.26c1.91-.49,8.39-6.19,8.39-7.92V382.99Z"/><path id="Plus" d="M1191.2,924.24h165.6c6.48,0,22.21,10.5,26.9,15.33,25.15,25.89,21.14,63.63-7.3,84.87-3.65,2.72-14.46,9.19-18.64,9.19h-166.56v160.74c0,3.21-4.39,15.47-6.04,18.91-13.09,27.37-48.56,39.28-75.25,23.96-10.87-6.24-29.12-24.74-29.12-38.07v-165.54h-167.52c-9.11,0-24.85-13.56-30.22-20.65-15.49-20.47-16-42.23-2.71-64.09,5.81-9.55,22.2-24.66,33.89-24.66h166.56v-164.58c0-16.86,24.72-39.3,40.31-43.19,28.78-7.19,70.09,14.04,70.09,46.07v161.7Z"/></svg>