<?xml version="1.0" encoding="UTF-8"?><svg id="Calque_1" xmlns="http://www.w3.org/2000/svg" viewBox="0 0 1544.64 2096.4"><path d="M960,0l584.64,583.61v1512.79H0V0h960ZM933.12,71.03H74.4c-.17,0-2.4,2.23-2.4,2.4v1950.98h1401.6l.96-1364.96h-541.44V71.03ZM1449.6,589.37l-444.48-443.47v443.47h444.48Z"/><path d="M237.12,661.36c-2.31-1.95.46-35.36,1.08-40.67,14.26-121.16,117.36-218.04,239.87-221.39.26-1.37-1.83-1.26-2.84-1.45-20.16-3.77-33.52-6.17-51.89-16.27-115.77-63.7-75.87-244,54.21-252.04,147.54-9.12,201.54,183.7,77.35,252.04-18.37,10.11-31.73,12.51-51.89,16.27-1.01.19-3.1.09-2.84,1.45,136.44,3.02,248.78,125.86,240.96,262.06H237.12Z"/><path d="M562.36,908.34c250.12-1.68,500.29.66,750.42-.27,85.49,8.64,90.62,129,5.77,143.96H438.25c-46.07-6.75-74.05-50.86-59.32-95.77,23.64-72.08,121.88-40.31,178.4-47.2,1.69.39,3.64-.71,5.04-.72Z"/><path d="M919.48,1288.46c130.15-.19,260.32-.42,390.48-.32,87.36,6,94.71,126.91,10.42,143.92l-883.09.1c-82.48-12.8-82.57-130.32.11-142.9,160.67.35,321.51-.56,482.09-.79Z"/><path d="M919.48,1668.57c130.15-.19,260.32-.42,390.48-.32,87.37,6,94.68,126.81,10.42,143.92l-883.09.1c-82.46-12.85-82.56-130.47.11-142.9,160.67.35,321.51-.56,482.09-.79Z"/><path d="M232.12,904.5c53.86-5.21,88.87,32.59,84.66,85.61-6.33,79.84-120.77,91.27-145.63,17.01-15.58-46.55,9.95-97.69,60.96-102.63Z"/><path d="M234.05,1664.74c104.05-9.28,112.06,146.13,14.1,152.32-101.02,6.39-110.54-143.72-14.1-152.32Z"/><path d="M234.05,1284.62c103.81-9.26,111.85,145.37,15.06,152.32-102.11,7.33-111.5-143.72-15.06-152.32Z"/></svg>