<?xml version="1.0" encoding="UTF-8"?><svg id="IconSignUp" xmlns="http://www.w3.org/2000/svg" viewBox="0 0 1611.05 1774.22"><path id="Rectangle" d="M62.22,1511.45c-29.15-3.28-56.95-31.26-60.69-60.24C-.53,987.46-.49,523.05,1.51,59.3,7.25,28.16,32.45,3.77,64.11,0h1220.23c32.76,3.51,59.13,29.51,63.69,62.05l.16,818.49-1.02,8.11-10.15-17.19c-36.12-48.62-113.89-33.02-128.09,25.82-1.29.28-1.08-.99-1.41-1.92-2.06-5.93-2.65-12.45-3.43-18.66l.08-701.57c-1.75-16.55-15.31-30.29-32.15-31.2H177.38c-16.67.91-30.01,13.81-32.16,30.23v1163.15c.26,13.04,16.48,30.19,29.32,30.19h495.84l-14.19,3.57c-63.82,21.66-66.26,112.23-2.38,136.31l14.65,4.07H62.22Z"/><path id="avatar" d="M246.06,1206.29c-2.1-130.92,61.79-258.46,164.26-338.17,70.56-54.88,156.74-87.27,246.62-90.79l-43.4-7.94c-154.19-41.19-225.35-224.25-135.93-358.93,95.38-143.65,309.29-139.36,398.99,7.68,82.1,134.57,9.89,311.01-140.73,351.25l-42.44,7.94c82.05,3.78,161.86,30.87,228.78,77.92,111.83,78.61,183.94,213.05,181.14,351.05H246.06Z"/><path id="plus" d="M1348.14,1367.51h198.24c10.94,0,30.51,9.73,38.89,16.78,38.07,32.05,33.32,92.81-9.93,117.73-5.26,3.03-20.5,9.43-26.08,9.43h-201.12v200.08c0,9.19-9.44,28.2-15.38,35.49-29.53,36.24-83.67,36.29-113.24,0-5.93-7.28-15.38-26.29-15.38-35.49v-200.08h-201.12c-8.67,0-27.61-9.71-34.53-15.38-51.09-41.82-25.11-123.91,40.25-128.6,53.07-3.81,110.65,2.94,164.19.03,17.28-2.47,29.87-15.56,31.24-33.06,4.16-52.88-4.74-112.38.09-164.97,5.13-55.93,73.11-84.61,116.9-48.97,12.15,9.89,26.98,31.81,26.98,47.88v199.12Z"/></svg>