<?xml version="1.0" encoding="UTF-8"?><svg id="IconAddPaper" xmlns="http://www.w3.org/2000/svg" viewBox="0 0 1035.39 1310.06"><path id="Paper" d="M779.52,713.8c-11.96-.36-23.88.04-35.52,2.88v-383.76h-273.6V35.5H36.96l-1.44,1.44v984.83h405.12c-1.98,12.08-2.23,24.21-1.92,36.46H0V0h483.36c.9,0,3.97,1.97,4.84,2.84l291.32,292.18v418.78ZM731.52,297.41l-224.64-224.5v224.5h224.64Z"/><path id="AddIcon" d="M826.56,990.1h162.72c6.76,0,19.65,7.15,24.93,11.54,27.73,23.07,28.43,62.79.96,86.29-3.42,2.93-16.18,11.54-20.13,11.54h-168.48v159.74c0,3.43-3.96,15.79-5.57,19.37-12.49,27.69-49.54,40.3-75.95,24.68-8.59-5.08-27.92-23.18-27.92-33.5v-168.85l-1.44-1.44h-168.96c-14.16,0-34.77-26.51-38.4-39.33-7.62-26.92,14.16-70.04,44.16-70.04h164.64v-169.33c0-7.9,17.43-26.01,24.09-30.61,31.72-21.93,85.35,1.3,85.35,40.21v159.74Z"/><g id="Paragraph"><g id="GroupLine3"><path id="Line" d="M203.29,834.93l381.82-.24c37.56,5.7,37.51,56.87,0,62.34H204.97c-36.24-5.13-37.46-54.91-1.68-62.1Z"/><path id="Circle" d="M114.99,833.03c45.9-5.26,50.02,63.47,6.43,65.92-42.41,2.39-47.51-61.21-6.43-65.92Z"/></g><g id="GroupLine2"><path d="M205.23,642.11l377.96-.25c38.13,3.41,40.64,55.04,3.86,62.35l-383.03-.02c-36.35-6.31-35.79-56.98,1.22-62.08Z"/><path d="M116.93,640.19c43.39-3.07,47.35,61.95,6.42,65.91-45.34,4.39-50.02-62.83-6.42-65.91Z"/></g><g id="GroupLine"><path d="M205.23,449.27l377.96-.25c38.13,3.41,40.64,55.04,3.86,62.35l-383.03-.02c-36.35-6.31-35.79-56.98,1.22-62.08Z"/><path d="M116.93,447.35c43.39-3.07,47.35,61.95,6.42,65.91-45.34,4.39-50.02-62.83-6.42-65.91Z"/></g></g></svg>