<?xml version="1.0" encoding="UTF-8"?><svg id="IconeDrag_Drop" xmlns="http://www.w3.org/2000/svg" viewBox="0 0 1131.8 1160.27"><path d="M1022.53,835.23h-24V46.59c0-10.88-12.58-22.7-23.49-22.59H48.57c-14.13.43-24.05,11.5-24.47,25.44v922.63c-1.26,8.88,9.69,25.4,18.75,25.4h762.24l1.44,1.44v22.56H39.97c-18.84,0-41.62-28.61-39.88-47.48V47.51C1.91,21.44,19.5,2.59,45.7,0h931.27c21.81.42,45.57,22.64,45.57,44.67v790.56Z"/><path id="IconPlus" d="M535.81,486.75h63.84c.81,0,6.94,1.88,8.16,2.4,15.42,6.56,18.35,29.52,5.69,40.25-1.42,1.2-8.67,5.35-10.01,5.35h-67.68v64.8c0,13.73-16.13,23.43-29.05,21.37-6.56-1.05-18.95-10.77-18.95-17.53v-67.2l-1.44-1.44h-67.2c-.59,0-7.46-3.31-8.48-4-18.67-12.55-8.28-44,12.32-44h64.8v-68.64c0-.43,3.31-6.54,4-7.52,9.76-13.98,30.96-13.4,40.01.96.96,1.53,4,9.11,4,10.4v64.8Z"/><g id="IconPicture"><path id="Flèche" d="M839.92,853.75c14.06-1.76,27.42,1.12,41.02,1.64,49.16,1.89,98.7,3.14,147.79,4.85,10.3.36,45.63-4.27,43.54,13.63-1.84,15.77-47.47,50.04-46.79,53.88,29.42,29.81,59.15,59.29,88.71,88.96,13.14,13.19,26.29,17.98,10.13,36.96-24.46,28.71-59.91,60.3-87.41,87.31-5.68,5.58-10.67,12.37-17.93,16.63s-9.98,3.07-16.62-2.2l-102.36-102.18c-13.51,10.59-23.41,25.21-36.32,36.44-15.08,13.11-29.38,17.4-31.26-8.15-3.43-46.55-2.08-95.35-3.76-142.16-.8-22.27-4.62-44.85-2.96-67.2.83-11.15,2.2-16.91,14.23-18.41Z"/><g id="GroupPicture"><path d="M973.57,834.27l-24-.96v-134.88l-1.44-1.44h-369.6c-.17,0-1.69,1.48-1.91,1.93l-.54,245.31,1.01,5.23h227.52l.96,24h-231.84c-10.08,0-22.58-16.27-21.63-26.37v-246.79c1.3-16.51,10.89-26.06,27.36-27.36h367.75c9.76.62,18.88,5.07,23.52,13.92.49.94,2.84,6.39,2.84,6.76v140.64Z"/><g id="GoupeMontagne"><path d="M608.29,928.35c-3.95-.85-5.46-7.11-3.78-10.51l113.25-195.86c2.17-2.56,6.29-3.87,9.05-1.42l71.57,121.38,36.43-60.51c3.05-1.82,7.8-1.39,9.99,1.63l27.01,45.95c.52,2.78-4.24.49-6.19.42-22.91-.8-52.04-2.16-60.53,24.04-7.42,22.89-1.6,51.26-1.43,74.89h-195.36Z"/><path d="M834.12,719.3c31-5.27,33.56,38.08,7.36,40.98-27.11,3-31.31-36.91-7.36-40.98Z"/></g></g></g><g id="Tiret"><path d="M266.76,882.5l97.61-.15c14.62,1.99,16.12,19.02,2.91,23.86h-101.64c-13.18-3.1-12.12-21.48,1.13-23.71Z"/><path d="M410.76,882.5l97.61-.15c14.62,1.99,16.12,19.02,2.91,23.86h-101.64c-13.18-3.1-12.12-21.48,1.13-23.71Z"/><path d="M127.59,868.05c9.01-1.01,14.35,12.58,25.75,14.14,20.3,2.78,49.22-3.39,68.61.51,13.5,2.71,13.61,19.44,1.33,23.52-23.06-1.27-48.22,1.88-71.02.09-7.87-.62-17.12-4.46-23.4-9.24-1.95-1.48-10.16-9.44-10.88-11.2-3.11-7.67,1.19-16.87,9.61-17.82Z"/><path d="M142.54,136.99c-1.74-1.69-3.76-6.53-3.83-8.95-.27-9.03,7.95-12.09,15.52-12.79,31.92-2.98,68.31,2.12,100.7.07,14.27,2.61,14.69,21.47.11,23.94-32.65.32-65.33-.48-97.98-.06-5.25.07-9.44,2.7-14.52-2.2Z"/><path d="M118.92,294.02c7.54-1.38,14,3.13,14.7,10.76,2.88,31.29-2.17,67.07-.13,98.84-3.26,14.31-22.49,13.34-23.96-1.78-2.97-30.59,2.33-65.93.03-97.03.6-4.97,4.42-9.88,9.37-10.79Z"/><path d="M118.93,438.01c7.45-1.28,14,3.24,14.69,10.77,2.89,31.28-2.18,67.08-.13,98.84-3.26,14.31-22.49,13.34-23.96-1.78-2.97-30.59,2.33-65.93.03-97.03.59-4.93,4.44-9.95,9.38-10.8Z"/><path d="M118.91,150.02c7.47-1.54,14.02,3.27,14.71,10.77,2.88,31.29-2.17,67.07-.13,98.84-1.88,13.21-22.4,14.78-23.95-2.75-2.71-30.57,2.12-65.07.02-96.06.46-4.83,4.63-9.82,9.36-10.79Z"/><path d="M118.93,582.01c7.45-1.28,14,3.24,14.69,10.77,2.89,31.28-2.18,67.08-.13,98.84-1.88,13.21-22.4,14.78-23.95-2.75-2.71-30.57,2.12-65.07.02-96.06.59-4.93,4.44-9.95,9.38-10.8Z"/><path d="M118.92,726.01c7.37-1.5,14.02,3.43,14.7,10.78,2.89,31.28-2.18,67.08-.13,98.84-3.26,14.31-22.49,13.34-23.96-1.78-2.97-30.59,2.33-65.93.03-97.03.45-4.81,4.65-9.85,9.37-10.8Z"/><path d="M299.4,115.46l99.53-.14c13.71,1.94,14.69,20.77.98,23.85h-100.68c-12.83-3.03-12.27-20.58.17-23.71Z"/><path d="M443.4,115.46l99.53-.14c13.71,1.94,14.69,20.77.98,23.85h-100.68c-12.83-3.03-12.27-20.58.17-23.71Z"/><path d="M587.4,115.46l99.53-.14c13.71,1.94,14.69,20.77.98,23.85h-100.68c-12.83-3.03-12.27-20.58.17-23.71Z"/><path d="M731.4,115.46l99.53-.14c13.71,1.94,14.69,20.77.98,23.85h-100.68c-12.83-3.03-12.27-20.58.17-23.71Z"/><path d="M873.45,118.32c16.91-3.87,34.94,19.47,38.25,34.31,2.55,11.41,2.93,51.87,1.31,63.8-1.82,13.39-19.61,15.55-23.7,2.74-2.94-17.63,5.11-55.73-5.02-69.86-5.42-7.56-17.94-8.88-19.02-18.5-.52-4.66,3.63-11.46,8.18-12.5Z"/><path d="M898.45,251.75c9.09-1.76,13.99,5.65,14.68,13.69,2.58,30.3-1.93,64.3-.12,94.99-1.58,12.73-18.73,15.73-23.46,3.47l-.4-103.17c.6-3.81,5.69-8.28,9.3-8.98Z"/><path d="M913.09,648.99h-24v-101.28c0-2.3,6.88-7.48,9.36-7.96,6.21-1.2,14.64,4.41,14.64,10.84v98.4Z"/><path d="M898.45,395.75c9.09-1.76,13.99,5.65,14.68,13.69,2.58,30.3-1.93,64.3-.12,94.99-1.58,12.73-18.73,15.73-23.46,3.47l-.4-103.17c.6-3.81,5.69-8.28,9.3-8.98Z"/></g></svg>