<?xml version="1.0" encoding="UTF-8"?><svg id="Calque_1" xmlns="http://www.w3.org/2000/svg" viewBox="0 0 2711 2238"><path d="M799.71,0l22.04,10.95,206.92,205,1455.51-.05c104.54,2.45,201.46,78.53,221.84,182.07,2.12,10.78,2.42,21.49,4.98,32.02v1594c-2.88,11.1-2.73,22.7-4.93,34.07-14.53,75.34-78.18,143.35-149.94,168-16.64,5.72-34.01,8-51.05,11.93H207.92c-17.04-3.92-34.41-6.21-51.05-11.93-72.07-24.76-131.09-88.92-148.73-163.22-3.08-12.98-2.91-26.95-8.14-38.85V214c5.27-15.6,6.47-32.07,11-48C32.98,88.63,97.42,28.16,174.68,7.74L215.92,0h583.78ZM2651.02,616v-191c0-70.72-90.4-151-160.96-148.98l-1478.96-.5-17.51-8.48-208.92-207-559.83-.13c-71.18-2.86-162.86,77.62-162.86,149.08v407h2589.04ZM2651.02,676H61.98v1349c0,66.11,84.94,145.39,150.98,146.97l2283.22.12c67.54.73,154.85-79.91,154.85-147.09V676Z"/></svg>