<?xml version="1.0" encoding="UTF-8"?><svg id="Calque_1" xmlns="http://www.w3.org/2000/svg" viewBox="0 0 421.24 300.05"><path d="M23.71.08l373.19-.08c12.94.95,23.39,11.39,24.35,24.34v251.37c-.95,12.94-11.39,23.39-24.35,24.34H24.35c-12.94-.95-23.39-11.39-24.35-24.34V24.34C.93,11.67,11.03,1.25,23.71.08ZM25.85,24.05c-.82.15-1.42.62-1.75,1.37l.07,249.38c.51.98,1.5,1.31,2.57,1.27h367.75c1.46.08,2.79-.71,2.76-2.28l-.19-248.54c-.51-.98-1.5-1.31-2.57-1.27l-368.65.07Z"/><path d="M245.88,169.33l34.21-59.46c2.96-3.88,7.93-4.24,11.47-.95l78.46,135.73c1.61,4.44-1.78,9.53-6.46,9.84-102.11.17-204.22.3-306.34.24-4.77-.5-7.61-5.6-5.34-9.92L165.4,48.45c3.07-3.6,8.44-3.11,10.92.84l69.56,120.04Z"/><path d="M283.98,45.41c16.73-1.63,28.63,15.75,20.56,30.63s-28.69,14.37-36.47,0c-6.97-12.86,1.31-29.21,15.91-30.63Z"/></svg>